# xmcd CD database file
#
# Track frame offsets:
#	150
#	35746
#	150617
#
# Disc length: 3081 seconds
#
# Revision: 1
# Processed by: cddbd v1.5.2PL0 Copyright (c) Steve Scherf et al.
# Submitted via: CDex 1.51
#
DISCID=1d0c0703
DTITLE=Sigmund FREUD - Cinq leçons sur la psychanalyse - CD 1
DYEAR=2010
DGENRE=AudioBook
TTITLE0=Introduction par Elisabeth ROUDINESCO
TTITLE1=PREMIERE LECON
TTITLE2=DEUXIEME LECON
EXTD=YEAR: 2010
EXTT0=
EXTT1=
EXTT2=
PLAYORDER=
